<mxfile host="app.diagrams.net" modified="2021-10-04T08:35:47.682Z" agent="5.0 (Windows NT 10.0; Win64; x64) AppleWebKit/537.36 (KHTML, like Gecko) Chrome/93.0.4577.82 Safari/537.36" etag="hZ-razfhF2mCKFdN9ItK" version="15.1.1" type="github">
  <diagram id="loepz7UHPDvuToeBhsvE" name="Page-1">
    <mxGraphModel dx="1310" dy="683" grid="1" gridSize="10" guides="1" tooltips="1" connect="1" arrows="1" fold="1" page="1" pageScale="1" pageWidth="1169" pageHeight="827" math="0" shadow="0">
      <root>
        <mxCell id="0" />
        <mxCell id="1" parent="0" />
        <mxCell id="uQzFwTUwsW3qfp-UjTyZ-11" value="VPC" style="points=[[0,0],[0.25,0],[0.5,0],[0.75,0],[1,0],[1,0.25],[1,0.5],[1,0.75],[1,1],[0.75,1],[0.5,1],[0.25,1],[0,1],[0,0.75],[0,0.5],[0,0.25]];outlineConnect=0;gradientColor=none;html=1;whiteSpace=wrap;fontSize=12;fontStyle=0;shape=mxgraph.aws4.group;grIcon=mxgraph.aws4.group_vpc;strokeColor=#248814;fillColor=none;verticalAlign=top;align=left;spacingLeft=30;fontColor=#AAB7B8;dashed=0;" parent="1" vertex="1">
          <mxGeometry x="890" y="280" width="240" height="190" as="geometry" />
        </mxCell>
        <mxCell id="8eXfYVXMiz3a00TPgSnW-2" value="SES受信可能リージョン" style="points=[[0,0],[0.25,0],[0.5,0],[0.75,0],[1,0],[1,0.25],[1,0.5],[1,0.75],[1,1],[0.75,1],[0.5,1],[0.25,1],[0,1],[0,0.75],[0,0.5],[0,0.25]];outlineConnect=0;gradientColor=none;html=1;whiteSpace=wrap;fontSize=12;fontStyle=0;shape=mxgraph.aws4.group;grIcon=mxgraph.aws4.group_region;strokeColor=#147EBA;fillColor=none;verticalAlign=top;align=left;spacingLeft=30;fontColor=#147EBA;dashed=1;" parent="1" vertex="1">
          <mxGeometry x="14.39" y="60" width="485.61" height="440" as="geometry" />
        </mxCell>
        <mxCell id="uQzFwTUwsW3qfp-UjTyZ-5" value="メインリージョン" style="points=[[0,0],[0.25,0],[0.5,0],[0.75,0],[1,0],[1,0.25],[1,0.5],[1,0.75],[1,1],[0.75,1],[0.5,1],[0.25,1],[0,1],[0,0.75],[0,0.5],[0,0.25]];outlineConnect=0;gradientColor=none;html=1;whiteSpace=wrap;fontSize=12;fontStyle=0;shape=mxgraph.aws4.group;grIcon=mxgraph.aws4.group_region;strokeColor=#147EBA;fillColor=none;verticalAlign=top;align=left;spacingLeft=30;fontColor=#147EBA;dashed=1;" parent="1" vertex="1">
          <mxGeometry x="530" y="60" width="620" height="630" as="geometry" />
        </mxCell>
        <mxCell id="uQzFwTUwsW3qfp-UjTyZ-7" style="edgeStyle=orthogonalEdgeStyle;rounded=0;orthogonalLoop=1;jettySize=auto;html=1;entryX=0;entryY=0.5;entryDx=0;entryDy=0;entryPerimeter=0;" parent="1" source="8eXfYVXMiz3a00TPgSnW-1" target="8eXfYVXMiz3a00TPgSnW-12" edge="1">
          <mxGeometry relative="1" as="geometry" />
        </mxCell>
        <mxCell id="8eXfYVXMiz3a00TPgSnW-1" value="K2-receiptmail-topic&lt;br&gt;(SNS)" style="sketch=0;points=[[0,0,0],[0.25,0,0],[0.5,0,0],[0.75,0,0],[1,0,0],[0,1,0],[0.25,1,0],[0.5,1,0],[0.75,1,0],[1,1,0],[0,0.25,0],[0,0.5,0],[0,0.75,0],[1,0.25,0],[1,0.5,0],[1,0.75,0]];outlineConnect=0;fontColor=#232F3E;gradientColor=#FF4F8B;gradientDirection=north;fillColor=#BC1356;strokeColor=#ffffff;dashed=0;verticalLabelPosition=bottom;verticalAlign=top;align=center;html=1;fontSize=12;fontStyle=0;aspect=fixed;shape=mxgraph.aws4.resourceIcon;resIcon=mxgraph.aws4.sns;" parent="1" vertex="1">
          <mxGeometry x="570" y="345.5" width="78" height="78" as="geometry" />
        </mxCell>
        <mxCell id="uQzFwTUwsW3qfp-UjTyZ-3" value="" style="edgeStyle=orthogonalEdgeStyle;rounded=0;orthogonalLoop=1;jettySize=auto;html=1;" parent="1" source="8eXfYVXMiz3a00TPgSnW-3" target="8eXfYVXMiz3a00TPgSnW-11" edge="1">
          <mxGeometry relative="1" as="geometry" />
        </mxCell>
        <mxCell id="uQzFwTUwsW3qfp-UjTyZ-4" style="edgeStyle=orthogonalEdgeStyle;rounded=0;orthogonalLoop=1;jettySize=auto;html=1;entryX=0;entryY=0.5;entryDx=0;entryDy=0;entryPerimeter=0;" parent="1" source="8eXfYVXMiz3a00TPgSnW-3" target="8eXfYVXMiz3a00TPgSnW-10" edge="1">
          <mxGeometry relative="1" as="geometry" />
        </mxCell>
        <mxCell id="8eXfYVXMiz3a00TPgSnW-3" value="&lt;span style=&quot;color: rgb(36, 41, 47); font-size: 13px; text-align: left; background-color: rgb(255, 255, 255);&quot;&gt;k2-receiptmail&lt;br style=&quot;font-size: 13px;&quot;&gt;(SES)&lt;br style=&quot;font-size: 13px;&quot;&gt;&lt;/span&gt;" style="sketch=0;points=[[0,0,0],[0.25,0,0],[0.5,0,0],[0.75,0,0],[1,0,0],[0,1,0],[0.25,1,0],[0.5,1,0],[0.75,1,0],[1,1,0],[0,0.25,0],[0,0.5,0],[0,0.75,0],[1,0.25,0],[1,0.5,0],[1,0.75,0]];outlineConnect=0;fontColor=#232F3E;gradientColor=#FF5252;gradientDirection=north;fillColor=#C7131F;strokeColor=#ffffff;dashed=0;verticalLabelPosition=bottom;verticalAlign=top;align=center;html=1;fontSize=13;fontStyle=0;aspect=fixed;shape=mxgraph.aws4.resourceIcon;resIcon=mxgraph.aws4.simple_email_service;" parent="1" vertex="1">
          <mxGeometry x="200" y="345.5" width="78" height="78" as="geometry" />
        </mxCell>
        <mxCell id="8eXfYVXMiz3a00TPgSnW-9" style="edgeStyle=orthogonalEdgeStyle;rounded=0;orthogonalLoop=1;jettySize=auto;html=1;entryX=0.5;entryY=0;entryDx=0;entryDy=0;entryPerimeter=0;" parent="1" source="8eXfYVXMiz3a00TPgSnW-4" target="8eXfYVXMiz3a00TPgSnW-3" edge="1">
          <mxGeometry relative="1" as="geometry" />
        </mxCell>
        <mxCell id="8eXfYVXMiz3a00TPgSnW-4" value="CJ" style="sketch=0;outlineConnect=0;fontColor=#232F3E;gradientColor=none;fillColor=#FF5252;strokeColor=none;dashed=0;verticalLabelPosition=bottom;verticalAlign=top;align=center;html=1;fontSize=12;fontStyle=0;aspect=fixed;shape=mxgraph.aws4.email;" parent="1" vertex="1">
          <mxGeometry x="50" y="248" width="58.78" height="52" as="geometry" />
        </mxCell>
        <mxCell id="8eXfYVXMiz3a00TPgSnW-8" style="edgeStyle=orthogonalEdgeStyle;rounded=0;orthogonalLoop=1;jettySize=auto;html=1;" parent="1" source="8eXfYVXMiz3a00TPgSnW-5" target="8eXfYVXMiz3a00TPgSnW-3" edge="1">
          <mxGeometry relative="1" as="geometry" />
        </mxCell>
        <mxCell id="8eXfYVXMiz3a00TPgSnW-5" value="応募者" style="sketch=0;outlineConnect=0;fontColor=#232F3E;gradientColor=none;fillColor=#FF5252;strokeColor=none;dashed=0;verticalLabelPosition=bottom;verticalAlign=top;align=center;html=1;fontSize=12;fontStyle=0;aspect=fixed;shape=mxgraph.aws4.email;" parent="1" vertex="1">
          <mxGeometry x="50" y="356.75" width="62.74" height="55.5" as="geometry" />
        </mxCell>
        <mxCell id="8eXfYVXMiz3a00TPgSnW-10" value="&lt;span style=&quot;color: rgb(36, 41, 47); font-size: 12px; text-align: left;&quot;&gt;k2-recriptmail&lt;br style=&quot;font-size: 12px;&quot;&gt;&amp;nbsp; (S3)&lt;br style=&quot;font-size: 12px;&quot;&gt;&lt;/span&gt;" style="sketch=0;points=[[0,0,0],[0.25,0,0],[0.5,0,0],[0.75,0,0],[1,0,0],[0,1,0],[0.25,1,0],[0.5,1,0],[0.75,1,0],[1,1,0],[0,0.25,0],[0,0.5,0],[0,0.75,0],[1,0.25,0],[1,0.5,0],[1,0.75,0]];outlineConnect=0;fontColor=#232F3E;gradientColor=#60A337;gradientDirection=north;fillColor=#277116;strokeColor=#ffffff;dashed=0;verticalLabelPosition=bottom;verticalAlign=top;align=center;html=1;fontSize=12;fontStyle=0;aspect=fixed;shape=mxgraph.aws4.resourceIcon;resIcon=mxgraph.aws4.s3;" parent="1" vertex="1">
          <mxGeometry x="370" y="170" width="78" height="78" as="geometry" />
        </mxCell>
        <mxCell id="uQzFwTUwsW3qfp-UjTyZ-2" value="&amp;nbsp;publish()&amp;nbsp;" style="edgeStyle=orthogonalEdgeStyle;rounded=0;orthogonalLoop=1;jettySize=auto;html=1;" parent="1" source="8eXfYVXMiz3a00TPgSnW-11" target="8eXfYVXMiz3a00TPgSnW-1" edge="1">
          <mxGeometry relative="1" as="geometry">
            <mxPoint x="560" y="378" as="targetPoint" />
          </mxGeometry>
        </mxCell>
        <mxCell id="8eXfYVXMiz3a00TPgSnW-11" value="&lt;div style=&quot;text-align: left; font-size: 13px;&quot;&gt;&lt;font color=&quot;#24292f&quot; style=&quot;font-size: 13px;&quot;&gt;&lt;span style=&quot;font-size: 13px; background-color: rgb(255, 255, 255);&quot;&gt;k2-receiptmail-handler&lt;/span&gt;&lt;/font&gt;&lt;/div&gt;" style="sketch=0;points=[[0,0,0],[0.25,0,0],[0.5,0,0],[0.75,0,0],[1,0,0],[0,1,0],[0.25,1,0],[0.5,1,0],[0.75,1,0],[1,1,0],[0,0.25,0],[0,0.5,0],[0,0.75,0],[1,0.25,0],[1,0.5,0],[1,0.75,0]];outlineConnect=0;fontColor=#232F3E;gradientColor=#F78E04;gradientDirection=north;fillColor=#D05C17;strokeColor=#ffffff;dashed=0;verticalLabelPosition=bottom;verticalAlign=top;align=center;html=1;fontSize=13;fontStyle=0;aspect=fixed;shape=mxgraph.aws4.resourceIcon;resIcon=mxgraph.aws4.lambda;" parent="1" vertex="1">
          <mxGeometry x="370" y="345.5" width="78" height="78" as="geometry" />
        </mxCell>
        <mxCell id="uQzFwTUwsW3qfp-UjTyZ-8" style="edgeStyle=orthogonalEdgeStyle;rounded=0;orthogonalLoop=1;jettySize=auto;html=1;" parent="1" source="8eXfYVXMiz3a00TPgSnW-12" target="uQzFwTUwsW3qfp-UjTyZ-1" edge="1">
          <mxGeometry relative="1" as="geometry" />
        </mxCell>
        <mxCell id="uQzFwTUwsW3qfp-UjTyZ-9" value="&amp;nbsp;getObject()&amp;nbsp;" style="edgeStyle=orthogonalEdgeStyle;rounded=0;orthogonalLoop=1;jettySize=auto;html=1;entryX=1;entryY=0.5;entryDx=0;entryDy=0;entryPerimeter=0;exitX=0.5;exitY=0;exitDx=0;exitDy=0;exitPerimeter=0;" parent="1" source="8eXfYVXMiz3a00TPgSnW-12" target="8eXfYVXMiz3a00TPgSnW-10" edge="1">
          <mxGeometry relative="1" as="geometry" />
        </mxCell>
        <mxCell id="uQzFwTUwsW3qfp-UjTyZ-13" value="&amp;nbsp;getSecretValue()&amp;nbsp;" style="edgeStyle=orthogonalEdgeStyle;rounded=0;orthogonalLoop=1;jettySize=auto;html=1;" parent="1" source="8eXfYVXMiz3a00TPgSnW-12" target="uQzFwTUwsW3qfp-UjTyZ-12" edge="1">
          <mxGeometry relative="1" as="geometry" />
        </mxCell>
        <mxCell id="8eXfYVXMiz3a00TPgSnW-12" value="k2-mailsave-handler" style="sketch=0;points=[[0,0,0],[0.25,0,0],[0.5,0,0],[0.75,0,0],[1,0,0],[0,1,0],[0.25,1,0],[0.5,1,0],[0.75,1,0],[1,1,0],[0,0.25,0],[0,0.5,0],[0,0.75,0],[1,0.25,0],[1,0.5,0],[1,0.75,0]];outlineConnect=0;fontColor=#232F3E;gradientColor=#F78E04;gradientDirection=north;fillColor=#D05C17;strokeColor=#ffffff;dashed=0;verticalLabelPosition=bottom;verticalAlign=top;align=center;html=1;fontSize=12;fontStyle=0;aspect=fixed;shape=mxgraph.aws4.resourceIcon;resIcon=mxgraph.aws4.lambda;" parent="1" vertex="1">
          <mxGeometry x="720" y="345.5" width="78" height="78" as="geometry" />
        </mxCell>
        <mxCell id="uQzFwTUwsW3qfp-UjTyZ-1" value="MySQL" style="sketch=0;points=[[0,0,0],[0.25,0,0],[0.5,0,0],[0.75,0,0],[1,0,0],[0,1,0],[0.25,1,0],[0.5,1,0],[0.75,1,0],[1,1,0],[0,0.25,0],[0,0.5,0],[0,0.75,0],[1,0.25,0],[1,0.5,0],[1,0.75,0]];outlineConnect=0;fontColor=#232F3E;gradientColor=#4D72F3;gradientDirection=north;fillColor=#3334B9;strokeColor=#ffffff;dashed=0;verticalLabelPosition=bottom;verticalAlign=top;align=center;html=1;fontSize=12;fontStyle=0;aspect=fixed;shape=mxgraph.aws4.resourceIcon;resIcon=mxgraph.aws4.rds;" parent="1" vertex="1">
          <mxGeometry x="1000" y="345.5" width="78" height="78" as="geometry" />
        </mxCell>
        <mxCell id="uQzFwTUwsW3qfp-UjTyZ-12" value="DB認証情報&lt;br&gt;(secret manager)" style="sketch=0;points=[[0,0,0],[0.25,0,0],[0.5,0,0],[0.75,0,0],[1,0,0],[0,1,0],[0.25,1,0],[0.5,1,0],[0.75,1,0],[1,1,0],[0,0.25,0],[0,0.5,0],[0,0.75,0],[1,0.25,0],[1,0.5,0],[1,0.75,0]];outlineConnect=0;fontColor=#232F3E;gradientColor=#F54749;gradientDirection=north;fillColor=#C7131F;strokeColor=#ffffff;dashed=0;verticalLabelPosition=bottom;verticalAlign=top;align=center;html=1;fontSize=12;fontStyle=0;aspect=fixed;shape=mxgraph.aws4.resourceIcon;resIcon=mxgraph.aws4.secrets_manager;" parent="1" vertex="1">
          <mxGeometry x="720" y="520" width="78" height="78" as="geometry" />
        </mxCell>
      </root>
    </mxGraphModel>
  </diagram>
</mxfile>
